# xmcd CD database file
#
# Track frame offsets:
#	150
#	20160
#	39031
#	56821
#	84934
#	103324
#	124944
#	149671
#	169820
#	192578
#	210695
#	241502
#	255660
#	275023
#	292153
#
# Disc length: 4097 seconds
#
# Revision: 2
# Processed by: cddbd v1.5.1PL0 Copyright (c) Steve Scherf et al.
# Submitted via: CDex 1.51
#
DISCID=e80fff0f
DTITLE=Nightwish - Tales From The Elvenpath
DYEAR=2004
DGENRE=New Age
TTITLE0=Wishmaster
TTITLE1=Sacrament Of Wilderness
TTITLE2=End Of All Hope
TTITLE3=Bless The Child
TTITLE4=Sleeping Sun
TTITLE5=She Is My Sin
TTITLE6=Walkin' In The Air
TTITLE7=Stargazers
TTITLE8=Over The Hills And Far Away
TTITLE9=The Kinslayer
TTITLE10=Dead Boy's Poem
TTITLE11=Sleepwalker
TTITLE12=Nightquest
TTITLE13=Lagoon
TTITLE14=Wayfarer
EXTD=YEAR: 2004
EXTT0=
EXTT1=
EXTT2=
EXTT3=
EXTT4=
EXTT5=
EXTT6=
EXTT7=
EXTT8=
EXTT9=
EXTT10=
EXTT11=
EXTT12=
EXTT13=
EXTT14=
PLAYORDER=
